<?xml version="1.0" encoding="UTF-8" standalone="no"?>
<!DOCTYPE svg PUBLIC "-//W3C//DTD SVG 1.1//EN"
 "http://www.w3.org/Graphics/SVG/1.1/DTD/svg11.dtd">
<!-- Generated by graphviz version 2.30.1 (20201013.1554)
 -->
<!-- Title: %3 Pages: 1 -->
<svg width="829pt" height="404pt"
 viewBox="0.00 0.00 829.00 404.00" xmlns="http://www.w3.org/2000/svg" xmlns:xlink="http://www.w3.org/1999/xlink">
<g id="graph0" class="graph" transform="scale(1 1) rotate(0) translate(4 400)">
<title>%3</title>
<polygon fill="white" stroke="white" points="-4,5 -4,-400 826,-400 826,5 -4,5"/>
<!-- [root] aws_eip.eip (expand) -->
<g id="node1" class="node"><title>[root] aws_eip.eip (expand)</title>
<polygon fill="none" stroke="black" points="368,-108 288,-108 288,-72 368,-72 368,-108"/>
<text text-anchor="middle" x="328" y="-86.3" font-family="Times,serif" font-size="14.00">aws_eip.eip</text>
</g>
<!-- [root] provider[&quot;registry.terraform.io/hashicorp/aws&quot;] -->
<g id="node5" class="node"><title>[root] provider[&quot;registry.terraform.io/hashicorp/aws&quot;]</title>
<polygon fill="none" stroke="black" points="391,-36 140.984,-18 391,-3.55271e-15 641.016,-18 391,-36"/>
<text text-anchor="middle" x="391" y="-14.3" font-family="Times,serif" font-size="14.00">provider[&quot;registry.terraform.io/hashicorp/aws&quot;]</text>
</g>
<!-- [root] aws_eip.eip (expand)&#45;&gt;[root] provider[&quot;registry.terraform.io/hashicorp/aws&quot;] -->
<g id="edge1" class="edge"><title>[root] aws_eip.eip (expand)&#45;&gt;[root] provider[&quot;registry.terraform.io/hashicorp/aws&quot;]</title>
<path fill="none" stroke="black" d="M343.573,-71.6966C351.43,-62.9668 361.081,-52.2436 369.621,-42.7544"/>
<polygon fill="black" stroke="black" points="372.382,-44.9189 376.47,-35.1446 367.179,-40.2361 372.382,-44.9189"/>
</g>
<!-- [root] aws_eip_association.graph&#45;eip (expand) -->
<g id="node2" class="node"><title>[root] aws_eip_association.graph&#45;eip (expand)</title>
<polygon fill="none" stroke="black" points="477,-252 295,-252 295,-216 477,-216 477,-252"/>
<text text-anchor="middle" x="386" y="-230.3" font-family="Times,serif" font-size="14.00">aws_eip_association.graph&#45;eip</text>
</g>
<!-- [root] aws_eip_association.graph&#45;eip (expand)&#45;&gt;[root] aws_eip.eip (expand) -->
<g id="edge2" class="edge"><title>[root] aws_eip_association.graph&#45;eip (expand)&#45;&gt;[root] aws_eip.eip (expand)</title>
<path fill="none" stroke="black" d="M377.954,-215.929C373.164,-205.598 367.054,-192.12 362,-180 353.379,-159.326 344.365,-135.62 337.786,-117.874"/>
<polygon fill="black" stroke="black" points="340.956,-116.356 334.215,-108.183 334.388,-118.776 340.956,-116.356"/>
</g>
<!-- [root] aws_instance.my&#45;instance (expand) -->
<g id="node3" class="node"><title>[root] aws_instance.my&#45;instance (expand)</title>
<polygon fill="none" stroke="black" points="527,-180 371,-180 371,-144 527,-144 527,-180"/>
<text text-anchor="middle" x="449" y="-158.3" font-family="Times,serif" font-size="14.00">aws_instance.my&#45;instance</text>
</g>
<!-- [root] aws_eip_association.graph&#45;eip (expand)&#45;&gt;[root] aws_instance.my&#45;instance (expand) -->
<g id="edge3" class="edge"><title>[root] aws_eip_association.graph&#45;eip (expand)&#45;&gt;[root] aws_instance.my&#45;instance (expand)</title>
<path fill="none" stroke="black" d="M401.573,-215.697C409.202,-207.22 418.523,-196.864 426.876,-187.583"/>
<polygon fill="black" stroke="black" points="429.518,-189.879 433.606,-180.104 424.315,-185.196 429.518,-189.879"/>
</g>
<!-- [root] data.aws_ami.amazon (expand) -->
<g id="node4" class="node"><title>[root] data.aws_ami.amazon (expand)</title>
<polygon fill="none" stroke="black" points="523.25,-108 386.75,-108 386.75,-72 523.25,-72 523.25,-108"/>
<text text-anchor="middle" x="455" y="-86.3" font-family="Times,serif" font-size="14.00">data.aws_ami.amazon</text>
</g>
<!-- [root] aws_instance.my&#45;instance (expand)&#45;&gt;[root] data.aws_ami.amazon (expand) -->
<g id="edge4" class="edge"><title>[root] aws_instance.my&#45;instance (expand)&#45;&gt;[root] data.aws_ami.amazon (expand)</title>
<path fill="none" stroke="black" d="M450.483,-143.697C451.144,-135.983 451.939,-126.712 452.676,-118.112"/>
<polygon fill="black" stroke="black" points="456.167,-118.367 453.534,-108.104 449.193,-117.769 456.167,-118.367"/>
</g>
<!-- [root] data.aws_ami.amazon (expand)&#45;&gt;[root] provider[&quot;registry.terraform.io/hashicorp/aws&quot;] -->
<g id="edge5" class="edge"><title>[root] data.aws_ami.amazon (expand)&#45;&gt;[root] provider[&quot;registry.terraform.io/hashicorp/aws&quot;]</title>
<path fill="none" stroke="black" d="M439.18,-71.6966C431.198,-62.9668 421.394,-52.2436 412.718,-42.7544"/>
<polygon fill="black" stroke="black" points="415.092,-40.1632 405.761,-35.1446 409.925,-44.8866 415.092,-40.1632"/>
</g>
<!-- [root] meta.count&#45;boundary (EachMode fixup) -->
<g id="node6" class="node"><title>[root] meta.count&#45;boundary (EachMode fixup)</title>
<ellipse fill="none" stroke="black" cx="176" cy="-306" rx="176.202" ry="18"/>
<text text-anchor="middle" x="176" y="-302.3" font-family="Times,serif" font-size="14.00">[root] meta.count&#45;boundary (EachMode fixup)</text>
</g>
<!-- [root] meta.count&#45;boundary (EachMode fixup)&#45;&gt;[root] aws_eip_association.graph&#45;eip (expand) -->
<g id="edge6" class="edge"><title>[root] meta.count&#45;boundary (EachMode fixup)&#45;&gt;[root] aws_eip_association.graph&#45;eip (expand)</title>
<path fill="none" stroke="black" d="M224.971,-288.676C254.846,-278.718 293.28,-265.907 325.106,-255.298"/>
<polygon fill="black" stroke="black" points="326.374,-258.565 334.754,-252.082 324.16,-251.924 326.374,-258.565"/>
</g>
<!-- [root] provider[&quot;registry.terraform.io/hashicorp/aws&quot;] (close) -->
<g id="node7" class="node"><title>[root] provider[&quot;registry.terraform.io/hashicorp/aws&quot;] (close)</title>
<ellipse fill="none" stroke="black" cx="596" cy="-306" rx="225.295" ry="18"/>
<text text-anchor="middle" x="596" y="-302.3" font-family="Times,serif" font-size="14.00">[root] provider[&quot;registry.terraform.io/hashicorp/aws&quot;] (close)</text>
</g>
<!-- [root] provider[&quot;registry.terraform.io/hashicorp/aws&quot;] (close)&#45;&gt;[root] aws_eip_association.graph&#45;eip (expand) -->
<g id="edge7" class="edge"><title>[root] provider[&quot;registry.terraform.io/hashicorp/aws&quot;] (close)&#45;&gt;[root] aws_eip_association.graph&#45;eip (expand)</title>
<path fill="none" stroke="black" d="M546.233,-288.411C516.445,-278.482 478.367,-265.789 446.805,-255.268"/>
<polygon fill="black" stroke="black" points="447.829,-251.92 437.235,-252.078 445.615,-258.561 447.829,-251.92"/>
</g>
<!-- [root] root -->
<g id="node8" class="node"><title>[root] root</title>
<ellipse fill="none" stroke="black" cx="386" cy="-378" rx="47.169" ry="18"/>
<text text-anchor="middle" x="386" y="-374.3" font-family="Times,serif" font-size="14.00">[root] root</text>
</g>
<!-- [root] root&#45;&gt;[root] meta.count&#45;boundary (EachMode fixup) -->
<g id="edge8" class="edge"><title>[root] root&#45;&gt;[root] meta.count&#45;boundary (EachMode fixup)</title>
<path fill="none" stroke="black" d="M351.323,-365.441C319.776,-354.925 272.554,-339.185 235.064,-326.688"/>
<polygon fill="black" stroke="black" points="235.858,-323.264 225.265,-323.422 233.645,-329.904 235.858,-323.264"/>
</g>
<!-- [root] root&#45;&gt;[root] provider[&quot;registry.terraform.io/hashicorp/aws&quot;] (close) -->
<g id="edge9" class="edge"><title>[root] root&#45;&gt;[root] provider[&quot;registry.terraform.io/hashicorp/aws&quot;] (close)</title>
<path fill="none" stroke="black" d="M420.677,-365.441C452.011,-354.996 498.806,-339.398 536.172,-326.943"/>
<polygon fill="black" stroke="black" points="537.566,-330.167 545.946,-323.685 535.352,-323.527 537.566,-330.167"/>
</g>
</g>
</svg>
